<svg id="Layer_1" data-name="Layer 1" xmlns="http://www.w3.org/2000/svg" viewBox="0 0 1210 325.42"><defs><style>.cls-1{fill:#004a7f;}</style></defs><path class="cls-1" d="M17.61,3.71,61.17,114.37,104.54,3.71h17.61L68.4,135.31H53.94L0,3.71Z"/><path class="cls-1" d="M152.36,137.16a34.93,34.93,0,0,1-12.79-2.31,32,32,0,0,1-10.28-6.4,30.17,30.17,0,0,1-6.86-9.54,28.37,28.37,0,0,1-2.5-12,25.07,25.07,0,0,1,3-12.14,27.66,27.66,0,0,1,8.44-9.36,43.51,43.51,0,0,1,13-6.12,57.6,57.6,0,0,1,16.41-2.22A79.81,79.81,0,0,1,175,78.41a64.48,64.48,0,0,1,12.79,3.52V74.14q0-11.85-6.68-18.63t-18.9-6.76q-14.65,0-30.77,11.31L126,49.49q18.72-12.6,37.63-12.6,19.1,0,29.75,10.19T204,75.81v39.48c0,3.83,1.73,5.8,5.19,5.93v14.09c-1.73.25-3.15.43-4.27.56a34.43,34.43,0,0,1-3.52.18,10.39,10.39,0,0,1-7.69-2.87,11.85,11.85,0,0,1-3.43-7l-.37-6.86a41.7,41.7,0,0,1-16.4,13.25A50.34,50.34,0,0,1,152.36,137.16Zm4.27-12.23a40.55,40.55,0,0,0,16.22-3.24,26.83,26.83,0,0,0,11.4-8.62c2.34-2.35,3.52-4.76,3.52-7.23V91.57a67.19,67.19,0,0,0-24.67-4.64q-12.22,0-19.92,5.19t-7.69,13.53a18.39,18.39,0,0,0,1.57,7.6,18,18,0,0,0,4.45,6.12,21.2,21.2,0,0,0,6.77,4.08,23.34,23.34,0,0,0,8.35,1.48Z"/><path class="cls-1" d="M230.58,0h16.31V110.29q0,5.37,2.88,8.43t8.06,3.06a21.19,21.19,0,0,0,4.82-.65,39.25,39.25,0,0,0,5.19-1.57l2.59,13.16a54.76,54.76,0,0,1-9.64,2.78,50.69,50.69,0,0,1-9.82,1.11q-9.45,0-14.92-5.38t-5.47-15Z"/><path class="cls-1" d="M283.59,0H299.9V110.29q0,5.37,2.88,8.43t8.06,3.06a21.19,21.19,0,0,0,4.82-.65,39.25,39.25,0,0,0,5.19-1.57l2.59,13.16a54.66,54.66,0,0,1-9.63,2.78,50.79,50.79,0,0,1-9.83,1.11q-9.45,0-14.92-5.38t-5.47-15Z"/><path class="cls-1" d="M379.1,137.16a49.26,49.26,0,0,1-20-4,47.54,47.54,0,0,1-15.57-10.84,49.45,49.45,0,0,1-10.1-16,53.54,53.54,0,0,1,0-38.64,48.91,48.91,0,0,1,10.2-16,48.27,48.27,0,0,1,15.66-10.84,49.46,49.46,0,0,1,20-4,47.1,47.1,0,0,1,44.95,30.67,52,52,0,0,1,3.42,18.63c0,1.36,0,2.6-.09,3.71a18.81,18.81,0,0,1-.28,2.59H347a37.57,37.57,0,0,0,3.34,13.16,33.42,33.42,0,0,0,17.33,16.87,30,30,0,0,0,12,2.41,32.06,32.06,0,0,0,8.71-1.2,38.58,38.58,0,0,0,8-3.25,27.65,27.65,0,0,0,6.58-5,20.75,20.75,0,0,0,4.36-6.68l14.08,3.9a35.38,35.38,0,0,1-6.58,9.82,43.38,43.38,0,0,1-9.64,7.69,49.07,49.07,0,0,1-12.14,5.1A52.13,52.13,0,0,1,379.1,137.16Zm33.18-56.72a34.82,34.82,0,0,0-3.43-12.69,34,34,0,0,0-7.23-9.92,33.14,33.14,0,0,0-34.57-6.39A31.41,31.41,0,0,0,357,57.92a32.9,32.9,0,0,0-7,9.92,36.26,36.26,0,0,0-3.25,12.6Z"/><path class="cls-1" d="M447.45,161.63c1.6.25,3.21.43,4.81.56s2.85.18,3.71.18a7.87,7.87,0,0,0,4-1,11.11,11.11,0,0,0,3.52-4,70.46,70.46,0,0,0,4-8.25q2.24-5.28,5.56-13.81L432.1,38.55H449l33,82.12,30-82.12h15.57l-47.1,122.16a28.31,28.31,0,0,1-8.62,11.39q-6,4.92-16.59,4.92a32.7,32.7,0,0,1-3.43-.19,42.94,42.94,0,0,1-4.35-.74Z"/><path class="cls-1" d="M641.88,136.24a56,56,0,0,1-25.3-5.66,62.32,62.32,0,0,1-19.55-15,68.18,68.18,0,0,1-12.61-21.41A70.59,70.59,0,0,1,580,69.51a68.38,68.38,0,0,1,4.7-25.21A69.57,69.57,0,0,1,597.77,23,62.89,62.89,0,0,1,617.51,8.25a56.34,56.34,0,0,1,24.75-5.47,54.18,54.18,0,0,1,25.2,5.84,64.62,64.62,0,0,1,19.47,15.29A71,71,0,0,1,704,69.69a68.38,68.38,0,0,1-4.73,25.21,69.35,69.35,0,0,1-13,21.23,62.42,62.42,0,0,1-19.65,14.64A56.27,56.27,0,0,1,641.88,136.24Zm-45-66.73a58.32,58.32,0,0,0,3.22,19.37,53.62,53.62,0,0,0,9.17,16.59A44.27,44.27,0,0,0,623.53,117a40.16,40.16,0,0,0,18.57,4.26A38.9,38.9,0,0,0,661,116.68a46.18,46.18,0,0,0,14.18-11.86,53,53,0,0,0,8.89-16.59,59.15,59.15,0,0,0-.18-38.09,51.72,51.72,0,0,0-9.27-16.5,46.69,46.69,0,0,0-14.27-11.4,41.81,41.81,0,0,0-37.17.19A45.57,45.57,0,0,0,609,34.11a53.31,53.31,0,0,0-9,16.49,58.26,58.26,0,0,0-3.16,18.91Z"/><path class="cls-1" d="M828.17,101.39a31.37,31.37,0,0,1-3.06,13.9A32.28,32.28,0,0,1,816.77,126a38,38,0,0,1-12.24,6.86,45.07,45.07,0,0,1-14.92,2.41H727.15V3.71h65.43a26.21,26.21,0,0,1,12.42,3,31,31,0,0,1,9.45,7.7,35.53,35.53,0,0,1,6,10.75,36.12,36.12,0,0,1,2.13,12.14,35,35,0,0,1-4.91,18.16,30.13,30.13,0,0,1-14,12.42,33.1,33.1,0,0,1,17.89,12.33A35,35,0,0,1,828.17,101.39ZM743.83,18.16V62.1h41.89a18.65,18.65,0,0,0,8.15-1.77,20.12,20.12,0,0,0,6.4-4.72,23.1,23.1,0,0,0,5.83-15.39,25.6,25.6,0,0,0-1.48-8.71,23.31,23.31,0,0,0-4-7,17.55,17.55,0,0,0-6.12-4.64,18.24,18.24,0,0,0-7.69-1.67ZM811.3,98.43a24.15,24.15,0,0,0-1.58-8.62,24.82,24.82,0,0,0-4.26-7.33,20.12,20.12,0,0,0-6.4-5,18,18,0,0,0-8.15-1.85H743.83v45.22h45.78A19.63,19.63,0,0,0,798.1,119a23.49,23.49,0,0,0,6.86-4.91,22.7,22.7,0,0,0,6.34-15.66Z"/><path class="cls-1" d="M944.38,117.52q-17.42,18.72-40,18.72A52.7,52.7,0,0,1,880,130.49a64.29,64.29,0,0,1-19.37-15.1A72.67,72.67,0,0,1,847.72,94,67.36,67.36,0,0,1,843,69.14a69.78,69.78,0,0,1,17.43-46.43A60.32,60.32,0,0,1,879.88,8.16a56.24,56.24,0,0,1,24.47-5.38q19.08,0,31.41,8a52.8,52.8,0,0,1,18.82,20.76l-12.79,8.9Q935.85,29,926,23.44a44,44,0,0,0-22-5.57,38,38,0,0,0-18.17,4.36A45,45,0,0,0,872,33.72a53,53,0,0,0-8.9,16.5,60.15,60.15,0,0,0-3.15,19.37,56,56,0,0,0,3.52,19.92A54.68,54.68,0,0,0,873.1,106a45,45,0,0,0,14.46,11.22,40.76,40.76,0,0,0,18.16,4.07q21.51,0,38.74-20.76V82.3H916V69.69h42.45v65.62H944.38Z"/><path class="cls-1" d="M982.38,3.71l39.85,68.58,40.23-68.58h18.16l-50,83.59v48h-16.68V86.93L964,3.71Z"/><path class="cls-1" d="M1115.47,34.85V135.31h-16.68V3.71h13l81.56,102.5V3.89H1210V135.31h-14.09Z"/><path class="cls-1" d="M282.75,217.82a28.19,28.19,0,0,0-6-5.09,54.36,54.36,0,0,0-8.48-4.43A60.25,60.25,0,0,0,258,205.1a53.54,53.54,0,0,0-11.59-1.23q-15.65,0-22.9,5.85t-7.25,16a17.77,17.77,0,0,0,2.07,9.05,17,17,0,0,0,6.5,6.12,49,49,0,0,0,11,4.43q6.6,1.89,15.64,4a165.26,165.26,0,0,1,18.76,5.18,54.87,54.87,0,0,1,14.32,7.26,29,29,0,0,1,9,10.55q3.12,6.23,3.11,15.26a35,35,0,0,1-3.77,16.68,33.39,33.39,0,0,1-10.27,11.69,44.29,44.29,0,0,1-15.36,6.78,81,81,0,0,1-19.22,2.17,88.83,88.83,0,0,1-29.3-4.81,81.83,81.83,0,0,1-25.16-14l8.1-14.32a44.83,44.83,0,0,0,7.83,6.41,63.31,63.31,0,0,0,10.93,5.74A80.78,80.78,0,0,0,233.66,308a66.58,66.58,0,0,0,14.79,1.6q14.32,0,22.24-5.09t7.91-15.26a17,17,0,0,0-2.54-9.52,21.72,21.72,0,0,0-7.45-6.69,57.72,57.72,0,0,0-12.15-5q-7.26-2.16-16.49-4.43a162.94,162.94,0,0,1-17.9-5.28,48.39,48.39,0,0,1-12.91-6.78,25.56,25.56,0,0,1-7.82-9.61,31.86,31.86,0,0,1-2.64-13.57,38.22,38.22,0,0,1,3.58-17,35.73,35.73,0,0,1,10-12.44,43.69,43.69,0,0,1,15.26-7.63,69.63,69.63,0,0,1,19.22-2.54,67.26,67.26,0,0,1,43.91,15.26Z"/><path class="cls-1" d="M360.2,325.42a50.15,50.15,0,0,1-20.36-4.05,48,48,0,0,1-15.82-11A50.09,50.09,0,0,1,313.75,294a53,53,0,0,1-3.68-19.69,52.37,52.37,0,0,1,3.68-19.6A49.06,49.06,0,0,1,340,227.52a50.15,50.15,0,0,1,20.36-4.05,47.81,47.81,0,0,1,45.69,31.19,52.59,52.59,0,0,1,3.49,18.94c0,1.38,0,2.64-.09,3.77a20.21,20.21,0,0,1-.29,2.64H327.6A37.88,37.88,0,0,0,331,293.39a34.25,34.25,0,0,0,7.35,10.36,33.74,33.74,0,0,0,10.27,6.78A30.53,30.53,0,0,0,360.76,313a32.28,32.28,0,0,0,8.86-1.22,38.11,38.11,0,0,0,8.1-3.3,28.18,28.18,0,0,0,6.69-5.09,20.71,20.71,0,0,0,4.43-6.78l14.32,4a36,36,0,0,1-6.69,10,43.74,43.74,0,0,1-9.8,7.82,50.64,50.64,0,0,1-12.34,5.19A52.77,52.77,0,0,1,360.2,325.42Zm33.73-57.66a35.47,35.47,0,0,0-3.49-12.91,34.51,34.51,0,0,0-7.35-10.08,33.66,33.66,0,0,0-35.14-6.5,31.84,31.84,0,0,0-10.27,6.59,33.3,33.3,0,0,0-7.16,10.08,37,37,0,0,0-3.3,12.82Z"/><path class="cls-1" d="M513,323.54H496.44v-55q0-15.83-4.8-23T477,238.36a27.94,27.94,0,0,0-10.18,2,40.54,40.54,0,0,0-9.61,5.37,37.32,37.32,0,0,0-7.91,8.1,34.67,34.67,0,0,0-5.09,10.37v59.36H427.66V225.17h15.07v21.1a43.39,43.39,0,0,1,16.87-16.58,48,48,0,0,1,24-6.22q8.47,0,14.13,3.11a24.06,24.06,0,0,1,9.05,8.67,38.56,38.56,0,0,1,4.8,13.1A89.21,89.21,0,0,1,513,264.74Z"/><path class="cls-1" d="M578.79,325.42A43.12,43.12,0,0,1,560,321.28a46.85,46.85,0,0,1-14.89-11.12A51.35,51.35,0,0,1,535.35,294a54.53,54.53,0,0,1-3.48-19.41,58.6,58.6,0,0,1,3.3-19.69,51,51,0,0,1,9.23-16.3,44.14,44.14,0,0,1,14.13-11,40.1,40.1,0,0,1,18-4.05,37.33,37.33,0,0,1,21.2,6.22,48.93,48.93,0,0,1,14.79,15.08V186h16.59V303.18c0,3.9,1.75,5.91,5.27,6v14.33c-1.38.25-2.61.44-3.67.56a24.27,24.27,0,0,1-2.92.19q-5.65,0-9-2.92a9.64,9.64,0,0,1-3.58-7.07l-.38-9.23a42.33,42.33,0,0,1-36,20.35Zm4-14.32a28,28,0,0,0,9.33-1.7,36.41,36.41,0,0,0,9-4.71,34,34,0,0,0,7.35-7.06,21.11,21.11,0,0,0,4-8.58V260.78a31.22,31.22,0,0,0-5.09-8.95,40.47,40.47,0,0,0-7.63-7.35,37.43,37.43,0,0,0-9-4.9,27.25,27.25,0,0,0-9.52-1.79A28.18,28.18,0,0,0,568,240.9a32.58,32.58,0,0,0-10.18,8.3,37.46,37.46,0,0,0-6.5,11.87A42.3,42.3,0,0,0,549,274.73a37.7,37.7,0,0,0,2.64,14,36.57,36.57,0,0,0,7.16,11.59,34.56,34.56,0,0,0,10.64,7.82A30.41,30.41,0,0,0,582.75,311.1Z"/><path class="cls-1" d="M707.31,323.54V189.74h17V308.46h74.62v15.08Z"/><path class="cls-1" d="M815.48,206.7V186h16.58V206.7Zm0,116.84V225.17h16.58v98.37Z"/><path class="cls-1" d="M943.43,323.54H926.85v-55q0-15.83-4.81-23t-14.6-7.16a27.94,27.94,0,0,0-10.18,2,40.54,40.54,0,0,0-9.61,5.37,37.32,37.32,0,0,0-7.91,8.1,34.67,34.67,0,0,0-5.09,10.37v59.36H858.07V225.17h15.07v21.1A43.33,43.33,0,0,1,890,229.69a48,48,0,0,1,24-6.22q8.48,0,14.13,3.11a24,24,0,0,1,9,8.67,38.57,38.57,0,0,1,4.81,13.1,89.21,89.21,0,0,1,1.41,16.39Z"/><path class="cls-1" d="M1037.84,323.54l-33.92-48.06L985.08,293.2v30.34H968.5V186h16.58v90.46l50.5-51.07h18.28l-39.2,40.7,41.09,57.48Z"/></svg>